<svg width="43" height="40" viewBox="0 0 43 40" fill="none" xmlns="http://www.w3.org/2000/svg">
<rect width="43" height="40" fill="#F5F5F5"/>
<g id="&#208;&#177;&#209;&#128;&#209;&#130;&#208;&#184;&#209;&#132; &#208;&#188;" clip-path="url(#clip0_1_3)">
<rect width="428" height="961" transform="translate(-165 -333)" fill="#FCFAFF"/>
<g id="Frame 628193">
<g id="Frame 628194">
<g id="Frame 628108">
<g id="Frame 628013">
<g id="Frame 628013_2">
<g id="Group 8725">
<path id="Vector" d="M7.1188 1.84148C16.3153 -0.613828 25.995 -0.613828 35.1916 1.84148C36.706 2.24928 38.0759 3.07315 39.146 4.21971C40.2162 5.36628 40.9437 6.78969 41.2462 8.32862C42.3274 13.9126 42.3274 19.6493 41.2462 25.2206C40.9263 26.8855 40.1099 28.4146 38.9043 29.6066C37.6987 30.7986 36.1604 31.5976 34.492 31.8985C34.2667 31.9574 34.0672 32.0892 33.9246 32.2732C33.782 32.4573 33.7042 32.6833 33.7033 32.9161V39.5813C33.7033 39.734 33.6016 39.8866 33.4489 39.9629C33.3763 39.9956 33.2959 40.007 33.2171 39.9958C33.1383 39.9845 33.0643 39.9511 33.0037 39.8993L26.2368 34.1627C25.6667 33.6809 24.9341 33.4351 24.1889 33.4758C18.4395 33.7938 12.6774 33.196 7.1188 31.7205C5.60271 31.3117 4.23164 30.4859 3.16136 29.3369C2.09109 28.188 1.3645 26.7618 1.06415 25.2206C-0.0213822 19.6465 -0.0213822 13.9154 1.06415 8.34134C1.3645 6.80009 2.09109 5.37398 3.16136 4.22501C4.23164 3.07603 5.60271 2.25025 7.1188 1.84148Z" fill="#6000DB"/>
<path id="Vector_2" fill-rule="evenodd" clip-rule="evenodd" d="M31.3503 8.49244C31.3503 7.85645 30.8415 7.34766 30.2055 7.34766H12.9192C12.2832 7.34766 11.7744 7.85645 11.7744 8.49244V12.5246C11.7744 13.1606 12.2832 13.6694 12.9192 13.6694H16.9514C17.5874 13.6694 18.0962 14.1909 18.0962 14.8269V25.766C18.0962 26.402 18.6177 26.9235 19.2537 26.9235H23.871C24.507 26.9235 25.0158 26.4147 25.0158 25.7787V14.8397C25.0158 14.2037 25.5246 13.6822 26.1606 13.6822H30.2055C30.8415 13.6822 31.3503 13.1734 31.3503 12.5374V8.47972V8.49244Z" fill="white"/>
</g>
</g>
</g>
</g>
</g>
</g>
</g>
<defs>
<clipPath id="clip0_1_3">
<rect width="428" height="961" fill="white" transform="translate(-165 -333)"/>
</clipPath>
</defs>
</svg>
