<svg width="100" height="100" viewBox="0 0 100 100" fill="none" xmlns="http://www.w3.org/2000/svg">
<path fill-rule="evenodd" clip-rule="evenodd" d="M5.2085 50C5.2085 25.2623 25.2624 5.20837 50.0002 5.20837C74.7379 5.20837 94.7918 25.2623 94.7918 50C94.7918 74.7378 74.7379 94.7917 50.0002 94.7917C25.2624 94.7917 5.2085 74.7378 5.2085 50ZM50.0002 11.4584C28.7142 11.4584 11.4585 28.7141 11.4585 50C11.4585 71.286 28.7142 88.5417 50.0002 88.5417C71.2861 88.5417 88.5418 71.286 88.5418 50C88.5418 28.7141 71.2861 11.4584 50.0002 11.4584Z" fill="white"/>
<path fill-rule="evenodd" clip-rule="evenodd" d="M32.7582 62.9405C33.3276 62.0192 34.3335 61.4584 35.4165 61.4584H64.5832C65.6662 61.4584 66.6721 62.0192 67.2415 62.9405C67.8109 63.8618 67.8626 65.0122 67.3783 65.9809L64.5832 64.5834C67.3783 65.9809 67.3776 65.9823 67.3768 65.9837L67.3753 65.9868L67.372 65.9934L67.3641 66.009L67.3433 66.0494L67.2816 66.1653C67.2315 66.2578 67.1632 66.3801 67.0761 66.528C66.902 66.8234 66.6515 67.223 66.3195 67.6918C65.6577 68.626 64.6573 69.856 63.2739 71.0857C60.4808 73.5684 56.1231 76.0417 49.9998 76.0417C43.8765 76.0417 39.5189 73.5684 36.7258 71.0857C35.3424 69.856 34.342 68.626 33.6802 67.6918C33.3482 67.223 33.0976 66.8234 32.9236 66.528C32.8364 66.3801 32.7681 66.2578 32.7181 66.1653L32.6564 66.0494L32.6356 66.009L32.6277 65.9934L32.6244 65.9868L32.6228 65.9837C32.6221 65.9823 32.6214 65.9809 35.4165 64.5834L32.6214 65.9809C32.1371 65.0122 32.1888 63.8618 32.7582 62.9405ZM42.5855 67.7084C44.4019 68.8689 46.8305 69.7917 49.9998 69.7917C53.1692 69.7917 55.5977 68.8689 57.4142 67.7084H42.5855ZM61.7985 63.1652L61.7985 63.1652L61.7985 63.1652Z" fill="white"/>
<path fill-rule="evenodd" clip-rule="evenodd" d="M26.2562 37.927C27.7861 35.4792 30.6957 32.2916 35.4166 32.2916C40.1375 32.2916 43.0471 35.4792 44.577 37.927C45.3697 39.1954 45.9108 40.4386 46.2528 41.3506C46.4257 41.8117 46.5526 42.2012 46.6385 42.4841C46.6815 42.6259 46.7145 42.7419 46.7381 42.8278L46.7667 42.9338L46.7758 42.969L46.7791 42.9821L46.7805 42.9875C46.7808 42.9886 46.7816 42.992 43.7499 43.75L46.7816 42.992C47.2002 44.6664 46.1822 46.3631 44.5079 46.7817C42.8349 47.1999 41.1396 46.1839 40.7193 44.512L40.7209 44.5183L40.7119 44.485C40.7019 44.4488 40.6841 44.3857 40.6579 44.2996C40.6055 44.1269 40.5208 43.8653 40.4007 43.5451C40.1568 42.8947 39.7864 42.0546 39.277 41.2395C38.2027 39.5207 36.9457 38.5416 35.4166 38.5416C33.8875 38.5416 32.6305 39.5207 31.5562 41.2395C31.0468 42.0546 30.6764 42.8947 30.4325 43.5451C30.3124 43.8653 30.2277 44.1269 30.1752 44.2996C30.1491 44.3857 30.1313 44.4488 30.1213 44.485L30.1123 44.5183L30.114 44.5117C29.6946 46.1849 27.999 47.2001 26.3253 46.7817C24.651 46.3631 23.633 44.6664 24.0516 42.992L27.0833 43.75C24.0516 42.992 24.0513 42.9931 24.0516 42.992L24.0527 42.9875L24.0541 42.9821L24.0574 42.969L24.0665 42.9338L24.095 42.8278C24.1187 42.7419 24.1517 42.6259 24.1947 42.4841C24.2806 42.2012 24.4075 41.8117 24.5804 41.3506C24.9224 40.4386 25.4635 39.1954 26.2562 37.927ZM30.1123 44.5183C30.1118 44.5203 30.1119 44.5201 30.1123 44.5183V44.5183Z" fill="white"/>
<path fill-rule="evenodd" clip-rule="evenodd" d="M55.4227 37.927C56.9526 35.4792 59.8622 32.2916 64.5831 32.2916C69.304 32.2916 72.2136 35.4792 73.7435 37.927C74.5362 39.1954 75.0773 40.4386 75.4193 41.3506C75.5922 41.8117 75.7191 42.2012 75.805 42.4841C75.848 42.6259 75.881 42.7419 75.9046 42.8278L75.9332 42.9338L75.9423 42.969L75.9456 42.9821L75.947 42.9875C75.9473 42.9886 75.9481 42.992 72.9164 43.75L75.9481 42.992C76.3667 44.6664 75.3487 46.3631 73.6744 46.7817C72.0014 47.1999 70.3061 46.1839 69.8858 44.512L69.8874 44.5183L69.8784 44.485C69.8684 44.4488 69.8506 44.3857 69.8245 44.2996C69.772 44.1269 69.6873 43.8653 69.5672 43.5451C69.3233 42.8947 68.9529 42.0546 68.4435 41.2395C67.3692 39.5207 66.1122 38.5416 64.5831 38.5416C63.054 38.5416 61.797 39.5207 60.7227 41.2395C60.2133 42.0546 59.8429 42.8947 59.599 43.5451C59.4789 43.8653 59.3942 44.1269 59.3417 44.2996C59.3156 44.3857 59.2978 44.4488 59.2878 44.485L59.2788 44.5183L59.2805 44.5117C58.8611 46.1849 57.1655 47.2001 55.4918 46.7817C53.8175 46.3631 52.7995 44.6664 53.2181 42.992L56.2498 43.75C53.2181 42.992 53.2178 42.9931 53.2181 42.992L53.2192 42.9875L53.2206 42.9821L53.2239 42.969L53.233 42.9338L53.2615 42.8278C53.2852 42.7419 53.3182 42.6259 53.3612 42.4841C53.4471 42.2012 53.574 41.8117 53.7469 41.3506C54.0889 40.4386 54.63 39.1954 55.4227 37.927ZM59.2788 44.5183C59.2783 44.5203 59.2784 44.5201 59.2788 44.5183V44.5183Z" fill="white"/>
</svg>
