<svg width="100" height="100" viewBox="0 0 100 100" fill="none" xmlns="http://www.w3.org/2000/svg">
<path fill-rule="evenodd" clip-rule="evenodd" d="M21.875 27.0833C21.875 17.3033 29.8033 9.375 39.5833 9.375C49.3634 9.375 57.2917 17.3033 57.2917 27.0833C57.2917 36.8634 49.3634 44.7917 39.5833 44.7917C29.8033 44.7917 21.875 36.8634 21.875 27.0833ZM39.5833 15.625C33.2551 15.625 28.125 20.7551 28.125 27.0833C28.125 33.4116 33.2551 38.5417 39.5833 38.5417C45.9116 38.5417 51.0417 33.4116 51.0417 27.0833C51.0417 20.7551 45.9116 15.625 39.5833 15.625Z" fill="white"/>
<path fill-rule="evenodd" clip-rule="evenodd" d="M67.3525 13.8716C68.8962 13.0998 70.7733 13.7255 71.5452 15.2692L68.7501 16.6667C71.5452 15.2692 71.5445 15.2679 71.5452 15.2692L71.5478 15.2745L71.5509 15.2806L71.5583 15.2956L71.578 15.3361L71.6359 15.4585C71.6822 15.5583 71.7435 15.6943 71.8163 15.8647C71.9618 16.2053 72.1534 16.6848 72.3624 17.2884C72.7796 18.4937 73.2699 20.2064 73.5959 22.3073C74.2487 26.5138 74.2466 32.3174 71.6424 38.6833C70.9889 40.2807 69.1643 41.0458 67.5669 40.3924C65.9695 39.7389 65.2043 37.9142 65.8578 36.3168C67.941 31.2243 67.939 26.6113 67.4199 23.2657C67.1599 21.5906 66.7714 20.2434 66.4562 19.3328C66.2989 18.8785 66.161 18.5359 66.0684 18.3191C66.0221 18.2108 65.9874 18.1342 65.9673 18.0911L65.9488 18.0518L65.951 18.0562" fill="white"/>
<path fill-rule="evenodd" clip-rule="evenodd" d="M81.8157 5.60159C83.3243 4.76343 85.2269 5.307 86.065 6.8157L83.3333 8.33333C86.065 6.8157 86.0658 6.81702 86.0665 6.81841L86.0683 6.82152L86.0723 6.82891L86.083 6.84839L86.1142 6.90601C86.1392 6.95266 86.1725 7.01575 86.2134 7.09488C86.295 7.2531 86.4066 7.47561 86.5411 7.75917C86.8101 8.32606 87.1714 9.13849 87.5683 10.1705C88.3613 12.2323 89.3021 15.1851 89.9285 18.818C91.1834 26.0965 91.1769 36.1292 86.1782 47.1265C85.464 48.6977 83.6113 49.3924 82.0402 48.6782C80.469 47.964 79.7742 46.1114 80.4884 44.5402C84.8646 34.9125 84.8582 26.1952 83.7693 19.8799C83.2238 16.716 82.4068 14.161 81.7349 12.4141C81.3994 11.5418 81.1016 10.8748 80.8945 10.4383C80.791 10.2201 80.7103 10.0599 80.6592 9.96089L80.6056 9.85873L80.5971 9.84289C80.5967 9.84224 80.5969 9.84258 80.5976 9.84392L80.5992 9.84669L80.6003 9.84864C79.7639 8.34031 80.3077 6.43933 81.8157 5.60159Z" fill="white"/>
<path fill-rule="evenodd" clip-rule="evenodd" d="M34.8624 55.2084H44.3041C48.8547 55.2084 52.4609 55.2083 55.3676 55.4458C58.3401 55.6887 60.8551 56.1953 63.1517 57.3654C66.8757 59.2629 69.9037 62.2908 71.8012 66.0148C72.9713 68.3114 73.478 70.8266 73.7208 73.799C73.9583 76.7057 73.9583 80.3119 73.9583 84.8624V87.5C73.9583 89.2259 72.5591 90.625 70.8333 90.625H8.33325C6.60736 90.625 5.20825 89.2259 5.20825 87.5L5.20825 84.8625C5.20823 80.312 5.20821 76.7057 5.4457 73.799C5.68856 70.8265 6.19526 68.3114 7.36542 66.0149C9.26288 62.2908 12.2906 59.263 16.0147 57.3654C18.3112 56.1954 20.8264 55.6887 23.7989 55.4458C26.7056 55.2083 30.3118 55.2084 34.8624 55.2084ZM18.8521 62.9343C16.3041 64.2326 14.2325 66.3043 12.9342 68.8523C12.2878 70.1209 11.8862 71.722 11.6749 74.3079C11.4703 76.8131 11.4589 79.9831 11.4583 84.375H67.7082C67.7076 79.9831 67.6962 76.8131 67.4916 74.3079C67.2803 71.722 66.8788 70.121 66.2324 68.8523C64.9341 66.3043 62.8624 64.2326 60.3144 62.9343M18.8521 62.9343C20.1207 62.2879 21.7219 61.8863 24.3078 61.6751C26.9302 61.4608 30.2813 61.4584 34.9999 61.4584H44.1666C48.8852 61.4584 52.2363 61.4608 54.8587 61.6751C57.4446 61.8863 59.0457 62.2879 60.3144 62.9343" fill="white"/>
</svg>
