<svg width="100" height="100" viewBox="0 0 100 100" fill="none" xmlns="http://www.w3.org/2000/svg">
<path fill-rule="evenodd" clip-rule="evenodd" d="M49.9998 21.875C51.7257 21.875 53.1248 23.2741 53.1248 25V48.1958L73.4371 59.923C74.9318 60.786 75.4439 62.6972 74.581 64.1919C73.718 65.6865 71.8068 66.1987 70.3121 65.3357L49.9998 53.6084L29.6875 65.3357C28.1929 66.1987 26.2816 65.6865 25.4187 64.1919C24.5558 62.6972 25.0679 60.786 26.5625 59.923L46.8748 48.1958V25C46.8748 23.2741 48.2739 21.875 49.9998 21.875Z" fill="white"/>
<path fill-rule="evenodd" clip-rule="evenodd" d="M20.8333 28.125C17.9569 28.125 15.625 30.4569 15.625 33.3333C15.625 36.2098 17.9569 38.5417 20.8333 38.5417C23.7097 38.5417 26.0417 36.2097 26.0417 33.3333C26.0417 30.4569 23.7097 28.125 20.8333 28.125ZM9.375 33.3333C9.375 27.0052 14.505 21.875 20.8333 21.875C27.1615 21.875 32.2917 27.0052 32.2917 33.3333C32.2917 39.6615 27.1615 44.7917 20.8333 44.7917C14.505 44.7917 9.375 39.6615 9.375 33.3333Z" fill="white"/>
<path fill-rule="evenodd" clip-rule="evenodd" d="M20.8333 61.4584C17.9569 61.4584 15.625 63.7903 15.625 66.6667C15.625 69.5431 17.9569 71.875 20.8333 71.875C23.7097 71.875 26.0417 69.5431 26.0417 66.6667C26.0417 63.7903 23.7097 61.4584 20.8333 61.4584ZM9.375 66.6667C9.375 60.3385 14.505 55.2084 20.8333 55.2084C27.1615 55.2084 32.2917 60.3385 32.2917 66.6667C32.2917 72.9949 27.1615 78.125 20.8333 78.125C14.505 78.125 9.375 72.9949 9.375 66.6667Z" fill="white"/>
<path fill-rule="evenodd" clip-rule="evenodd" d="M49.9998 78.125C47.1234 78.125 44.7915 80.4569 44.7915 83.3333C44.7915 86.2097 47.1234 88.5417 49.9998 88.5417C52.8762 88.5417 55.2082 86.2097 55.2082 83.3333C55.2082 80.4569 52.8762 78.125 49.9998 78.125ZM38.5415 83.3333C38.5415 77.0052 43.6717 71.875 49.9998 71.875C56.328 71.875 61.4582 77.0052 61.4582 83.3333C61.4582 89.6615 56.328 94.7917 49.9998 94.7917C43.6717 94.7917 38.5415 89.6615 38.5415 83.3333Z" fill="white"/>
<path fill-rule="evenodd" clip-rule="evenodd" d="M79.1668 61.4584C76.2904 61.4584 73.9585 63.7903 73.9585 66.6667C73.9585 69.5431 76.2904 71.875 79.1668 71.875C82.0432 71.875 84.3752 69.5431 84.3752 66.6667C84.3752 63.7903 82.0432 61.4584 79.1668 61.4584ZM67.7085 66.6667C67.7085 60.3385 72.8386 55.2084 79.1668 55.2084C85.495 55.2084 90.6252 60.3385 90.6252 66.6667C90.6252 72.9949 85.495 78.125 79.1668 78.125C72.8386 78.125 67.7085 72.9949 67.7085 66.6667Z" fill="white"/>
<path fill-rule="evenodd" clip-rule="evenodd" d="M79.1668 28.125C76.2904 28.125 73.9585 30.4569 73.9585 33.3333C73.9585 36.2097 76.2904 38.5417 79.1668 38.5417C82.0432 38.5417 84.3752 36.2097 84.3752 33.3333C84.3752 30.4569 82.0432 28.125 79.1668 28.125ZM67.7085 33.3333C67.7085 27.0052 72.8386 21.875 79.1668 21.875C85.495 21.875 90.6252 27.0052 90.6252 33.3333C90.6252 39.6615 85.495 44.7917 79.1668 44.7917C72.8386 44.7917 67.7085 39.6615 67.7085 33.3333Z" fill="white"/>
<path fill-rule="evenodd" clip-rule="evenodd" d="M49.9998 11.4584C47.1234 11.4584 44.7915 13.7902 44.7915 16.6667C44.7915 19.5431 47.1234 21.875 49.9998 21.875C52.8762 21.875 55.2082 19.5431 55.2082 16.6667C55.2082 13.7902 52.8763 11.4584 49.9998 11.4584ZM38.5415 16.6667C38.5415 10.3384 43.6717 5.20837 49.9998 5.20837C56.328 5.20837 61.4582 10.3384 61.4582 16.6667C61.4582 22.9949 56.328 28.125 49.9998 28.125C43.6717 28.125 38.5415 22.9949 38.5415 16.6667Z" fill="white"/>
</svg>
