<svg width="100" height="100" viewBox="0 0 100 100" fill="none" xmlns="http://www.w3.org/2000/svg">
<path fill-rule="evenodd" clip-rule="evenodd" d="M5.20825 50C5.20825 25.2623 25.2622 5.20837 49.9999 5.20837C74.7377 5.20837 94.7916 25.2623 94.7916 50C94.7916 74.7378 74.7377 94.7917 49.9999 94.7917C25.2622 94.7917 5.20825 74.7378 5.20825 50ZM49.9999 11.4584C28.7139 11.4584 11.4583 28.7141 11.4583 50C11.4583 71.286 28.7139 88.5417 49.9999 88.5417C71.2859 88.5417 88.5416 71.286 88.5416 50C88.5416 28.7141 71.2859 11.4584 49.9999 11.4584Z" fill="white"/>
<path fill-rule="evenodd" clip-rule="evenodd" d="M50.0177 21.875C51.7436 21.8752 53.1426 23.2744 53.1424 25.0003L53.14 48.724L69.89 65.474C71.1104 66.6944 71.1104 68.6731 69.89 69.8935C68.6696 71.1139 66.691 71.1139 65.4706 69.8935L47.8052 52.228C47.2191 51.6419 46.8898 50.8469 46.8899 50.018L46.8924 24.9997C46.8926 23.2738 48.2918 21.8748 50.0177 21.875Z" fill="white"/>
</svg>
