<svg width="35" height="35" viewBox="0 0 35 35" fill="none" xmlns="http://www.w3.org/2000/svg">
<g id="Arrows/arrow-right-up">
<path id="Vector (Stroke)" fill-rule="evenodd" clip-rule="evenodd" d="M12.7603 8.02148C12.7603 7.41742 13.2499 6.92773 13.854 6.92773H26.979C27.5831 6.92773 28.0728 7.41742 28.0728 8.02148V21.1465C28.0728 21.7505 27.5831 22.2402 26.979 22.2402C26.3749 22.2402 25.8853 21.7505 25.8853 21.1465V9.11523H13.854C13.2499 9.11523 12.7603 8.62555 12.7603 8.02148Z" fill="white"/>
<path id="Vector (Stroke)_2" fill-rule="evenodd" clip-rule="evenodd" d="M27.7524 7.24808C28.1795 7.67522 28.1795 8.36774 27.7524 8.79488L9.19088 27.3565C8.76374 27.7836 8.07122 27.7836 7.64408 27.3565C7.21695 26.9293 7.21695 26.2368 7.64408 25.8097L26.2056 7.24809C26.6327 6.82095 27.3253 6.82095 27.7524 7.24808Z" fill="white"/>
</g>
</svg>
