<svg width="48" height="48" viewBox="0 0 48 48" fill="none" xmlns="http://www.w3.org/2000/svg">
<rect width="48" height="48" rx="24" fill="#6000DB"/>
<path d="M29.38 31H18.148V28.528L23.884 22.624C25.164 21.264 25.804 20.144 25.804 19.264C25.804 18.608 25.596 18.08 25.18 17.68C24.78 17.28 24.26 17.08 23.62 17.08C22.34 17.08 21.404 17.736 20.812 19.048L18.028 17.416C18.54 16.28 19.284 15.408 20.26 14.8C21.252 14.176 22.356 13.864 23.572 13.864C25.092 13.864 26.396 14.344 27.484 15.304C28.572 16.248 29.116 17.528 29.116 19.144C29.116 20.888 28.196 22.68 26.356 24.52L23.068 27.808H29.38V31Z" fill="#FCFAFF"/>
</svg>
