<svg width="48" height="48" viewBox="0 0 48 48" fill="none" xmlns="http://www.w3.org/2000/svg">
<rect width="48" height="48" rx="24" fill="#6000DB"/>
<path d="M28.616 16.936L25.472 21.016C26.64 21.352 27.568 21.944 28.256 22.792C28.96 23.64 29.312 24.648 29.312 25.816C29.312 27.544 28.728 28.896 27.56 29.872C26.424 30.848 25.008 31.336 23.312 31.336C21.984 31.336 20.808 31.032 19.784 30.424C18.76 29.8 18.016 28.92 17.552 27.784L20.384 26.152C20.784 27.448 21.76 28.096 23.312 28.096C24.16 28.096 24.816 27.896 25.28 27.496C25.76 27.08 26 26.52 26 25.816C26 25.128 25.76 24.576 25.28 24.16C24.816 23.744 24.16 23.536 23.312 23.536H22.592L21.32 21.616L24.632 17.296H18.056V14.2H28.616V16.936Z" fill="#FCFAFF"/>
</svg>
