<svg width="20" height="20" viewBox="0 0 20 20" fill="none" xmlns="http://www.w3.org/2000/svg">
<rect width="20" height="20" rx="10" fill="#6000DB"/>
<path d="M12.7525 13H7.1365V11.764L10.0045 8.812C10.6445 8.132 10.9645 7.572 10.9645 7.132C10.9645 6.804 10.8605 6.54 10.6525 6.34C10.4525 6.14 10.1925 6.04 9.8725 6.04C9.2325 6.04 8.7645 6.368 8.4685 7.024L7.0765 6.208C7.3325 5.64 7.7045 5.204 8.1925 4.9C8.6885 4.588 9.2405 4.432 9.8485 4.432C10.6085 4.432 11.2605 4.672 11.8045 5.152C12.3485 5.624 12.6205 6.264 12.6205 7.072C12.6205 7.944 12.1605 8.84 11.2405 9.76L9.5965 11.404H12.7525V13Z" fill="#FCFAFF"/>
</svg>
