<svg width="245" height="69" viewBox="0 0 245 69" fill="none" xmlns="http://www.w3.org/2000/svg">
<path d="M16.4388 0.5V68.5H0V0.5H16.4388ZM24.5309 13.8454V0.5H82.0088V13.8454H61.389V68.5H45.1893V13.8531H24.5386L24.5309 13.8454ZM115.172 68.5H90.0392V0.5H115.141C122.068 0.5 128.039 1.85769 133.038 4.58077C138.06 7.28071 141.94 11.1763 144.655 16.2677C147.378 21.3358 148.736 27.3991 148.736 34.4653C148.736 41.5314 147.378 47.6333 144.655 52.7246C141.955 57.8159 138.091 61.7193 133.069 64.4424C128.047 67.1423 122.076 68.4923 115.172 68.4923V68.5ZM106.47 54.4912H114.539C118.35 54.4912 121.567 53.8509 124.205 52.5626C126.859 51.2589 128.864 49.1453 130.214 46.2216C131.587 43.2748 132.274 39.356 132.274 34.4653C132.274 29.5745 131.587 25.6789 130.214 22.7784C128.841 19.8547 126.82 17.7565 124.136 16.4682C121.482 15.1645 118.203 14.5088 114.308 14.5088H106.47V54.4834V54.4912ZM158.332 68.5V0.5H186.419C191.511 0.5 195.908 1.41798 199.603 3.25394C203.321 5.06676 206.191 7.68185 208.204 11.0915C210.218 14.478 211.228 18.4971 211.228 23.141C211.228 27.7849 210.202 31.8656 208.142 35.1596C206.083 38.4381 203.159 40.9374 199.379 42.6654C195.592 44.3702 191.11 45.2188 185.933 45.2188H168.168V32.2668H182.879C185.355 32.2668 187.43 31.9428 189.089 31.3025C190.77 30.6391 192.043 29.644 192.907 28.3171C193.771 26.9672 194.203 25.2392 194.203 23.141C194.203 21.0427 193.771 19.2993 192.907 17.9262C192.043 16.5299 190.77 15.4885 189.089 14.802C187.407 14.0923 185.34 13.7374 182.879 13.7374H174.779V68.4923H158.34L158.332 68.5ZM196.618 37.4198L213.55 68.5H195.622L179.022 37.4198H196.618Z" fill="white"/>
<path d="M223.37 0.978516H243.944V5.55299H241.383V5.69185C241.838 5.8847 242.277 6.14698 242.702 6.49411C243.126 6.84896 243.465 7.29638 243.735 7.83637C244.005 8.38407 244.144 9.03977 244.144 9.80347C244.144 10.814 243.874 11.7551 243.327 12.6268C242.779 13.5063 241.938 14.2237 240.804 14.7637C239.67 15.3036 238.22 15.5736 236.461 15.5736C234.702 15.5736 233.344 15.3114 232.203 14.7868C231.061 14.2699 230.205 13.568 229.634 12.6886C229.063 11.8169 228.778 10.8372 228.778 9.77261C228.778 9.03977 228.901 8.40722 229.148 7.87494C229.395 7.34267 229.719 6.88753 230.12 6.52497C230.521 6.16241 230.953 5.89241 231.416 5.69185V5.59927H223.378V0.978516H223.37ZM236.461 5.49899C235.659 5.49899 234.957 5.59927 234.355 5.80756C233.761 6.02355 233.29 6.3244 232.959 6.72554C232.635 7.12667 232.473 7.61266 232.473 8.16808C232.473 8.7235 232.635 9.2172 232.959 9.61062C233.29 10.004 233.753 10.3049 234.355 10.5055C234.949 10.7137 235.651 10.814 236.461 10.814C237.271 10.814 237.965 10.7137 238.559 10.5055C239.153 10.3049 239.608 10.004 239.932 9.61062C240.256 9.2172 240.418 8.73892 240.418 8.16808C240.418 7.59723 240.256 7.11896 239.94 6.72554C239.624 6.33212 239.169 6.02355 238.575 5.80756C237.981 5.59927 237.279 5.49899 236.461 5.49899Z" fill="white"/>
<path d="M228.77 16.8848H243.735V21.3744H241.005V21.5287C241.992 21.7909 242.725 22.2229 243.203 22.8246C243.689 23.4263 243.936 24.1206 243.936 24.9152C243.936 25.1312 243.921 25.3472 243.89 25.5786C243.867 25.8023 243.82 26.0183 243.766 26.2111H239.624C239.701 25.9874 239.763 25.702 239.809 25.3394C239.855 24.9846 239.878 24.6683 239.878 24.3983C239.878 23.8506 239.755 23.3569 239.5 22.9172C239.254 22.4852 238.906 22.1381 238.459 21.8912C238.019 21.6444 237.495 21.521 236.901 21.521H228.778V16.9002L228.77 16.8848Z" fill="white"/>
<path d="M228.77 35.013C228.77 33.4856 229.094 32.1819 229.734 31.0865C230.382 29.9988 231.285 29.158 232.442 28.564C233.607 27.9777 234.949 27.6846 236.484 27.6846C238.019 27.6846 239.369 27.9777 240.526 28.564C241.691 29.158 242.593 29.9988 243.234 31.0865C243.882 32.1819 244.206 33.4933 244.206 35.013C244.206 36.5327 243.882 37.8441 243.234 38.9318C242.593 40.0272 241.691 40.868 240.526 41.4543C239.369 42.0483 238.019 42.3414 236.484 42.3414C234.949 42.3414 233.607 42.0483 232.442 41.4543C231.285 40.868 230.382 40.0272 229.734 38.9318C229.094 37.8441 228.77 36.5327 228.77 35.013ZM232.365 35.0438C232.365 35.5993 232.542 36.0698 232.889 36.4478C233.236 36.8335 233.73 37.1267 234.347 37.3272C234.972 37.5355 235.689 37.6358 236.507 37.6358C237.325 37.6358 238.065 37.5355 238.69 37.3272C239.315 37.1267 239.801 36.8335 240.148 36.4478C240.495 36.0621 240.673 35.5915 240.673 35.0438C240.673 34.4961 240.495 33.987 240.148 33.5859C239.801 33.1925 239.307 32.8993 238.69 32.691C238.065 32.4905 237.34 32.3902 236.507 32.3902C235.674 32.3902 234.964 32.4905 234.347 32.691C233.722 32.8993 233.236 33.2002 232.889 33.5859C232.542 33.9793 232.365 34.4653 232.365 35.0438Z" fill="white"/>
<path d="M243.18 58.9578C243.18 61.3492 242.339 63.3934 240.658 65.0982C238.976 66.7799 236.939 67.613 234.548 67.5899C232.203 67.613 230.197 66.7799 228.539 65.0982C226.857 63.3934 226.016 61.3492 226.016 58.9578C226.016 56.6976 226.857 54.7073 228.539 52.9793C230.197 51.2282 232.203 50.3488 234.548 50.3257C236.145 50.3488 237.595 50.7654 238.899 51.5908C240.202 52.3854 241.244 53.4422 242.023 54.7459C242.794 56.0264 243.188 57.4381 243.188 58.9655L243.18 58.9578Z" fill="white"/>
</svg>
