<svg width="64" height="64" viewBox="0 0 64 64" fill="none" xmlns="http://www.w3.org/2000/svg">
<rect width="64" height="64" rx="12" fill="#9CEDE8"/>
<path fill-rule="evenodd" clip-rule="evenodd" d="M14.5 32C14.5 22.335 22.335 14.5 32 14.5C41.665 14.5 49.5 22.335 49.5 32C49.5 41.665 41.665 49.5 32 49.5C22.335 49.5 14.5 41.665 14.5 32ZM32 17.5C23.9918 17.5 17.5 23.9918 17.5 32C17.5 40.0082 23.9918 46.5 32 46.5C40.0082 46.5 46.5 40.0082 46.5 32C46.5 23.9918 40.0082 17.5 32 17.5Z" fill="white"/>
<path fill-rule="evenodd" clip-rule="evenodd" d="M44.0698 23.3794C44.1418 22.5542 44.8692 21.9435 45.6945 22.0155C47.9053 22.2085 49.8804 22.651 51.4254 23.3942C52.9645 24.1347 54.2578 25.27 54.6993 26.9178L53.265 27.3022L54.6993 26.9178C55.1409 28.5659 54.5883 30.196 53.6253 31.6069C52.6587 33.0232 51.1691 34.3942 49.3504 35.6669C45.7023 38.2197 40.4504 40.5709 34.4587 42.1763C28.4671 43.7818 22.7433 44.3715 18.3075 43.9847C16.0962 43.7919 14.1206 43.3494 12.5754 42.6062C11.0359 41.8657 9.74237 40.7304 9.30076 39.0823L10.7497 38.6941L9.30076 39.0823C8.83791 37.3549 9.4656 35.6501 10.5188 34.1878C11.5799 32.7144 13.2057 31.2865 15.1873 29.9663C15.8767 29.5069 16.8079 29.6934 17.2673 30.3828C17.7266 31.0723 17.5401 32.0035 16.8507 32.4629C15.0357 33.6721 13.7274 34.866 12.9531 35.941C12.171 37.027 12.0623 37.7972 12.1985 38.3058C12.3287 38.7916 12.7691 39.3704 13.8757 39.9027C14.9766 40.4321 16.5592 40.8209 18.5681 40.9961C22.5729 41.3453 27.9377 40.8178 33.6823 39.2786C39.4269 37.7393 44.3368 35.5137 47.6304 33.2089C49.2826 32.0527 50.4588 30.9247 51.1474 29.9158C51.8397 28.9015 51.9317 28.18 51.8015 27.6943C51.6714 27.2086 51.2311 26.6298 50.1248 26.0976C49.0243 25.5682 47.4421 25.1794 45.4337 25.0042C44.6084 24.9322 43.9978 24.2047 44.0698 23.3794Z" fill="white"/>
</svg>
