<svg width="65" height="64" viewBox="0 0 65 64" fill="none" xmlns="http://www.w3.org/2000/svg">
<rect x="0.333313" width="64" height="64" rx="12" fill="#EDA69C"/>
<path fill-rule="evenodd" clip-rule="evenodd" d="M23.2727 14.9393C23.8584 14.3536 24.8082 14.3536 25.394 14.9393L33.394 22.9393C33.9798 23.5251 33.9798 24.4749 33.394 25.0607C32.8082 25.6464 31.8584 25.6464 31.2727 25.0607L24.3333 18.1213L14.4546 28L32.3333 45.8787L43.2727 34.9393C43.8584 34.3536 44.8082 34.3536 45.394 34.9393C45.9798 35.5251 45.9798 36.4749 45.394 37.0607L33.394 49.0607C32.8082 49.6464 31.8584 49.6464 31.2727 49.0607L11.2727 29.0607C10.6869 28.4749 10.6869 27.5251 11.2727 26.9393L23.2727 14.9393Z" fill="white"/>
<path fill-rule="evenodd" clip-rule="evenodd" d="M39.2727 14.9393C39.8584 14.3536 40.8082 14.3536 41.394 14.9393L53.394 26.9393C53.9798 27.5251 53.9798 28.4749 53.394 29.0607L45.394 37.0607C44.8082 37.6464 43.8584 37.6464 43.2727 37.0607L36.3333 30.1213L31.394 35.0607C30.9073 35.5474 30.1518 35.6404 29.5616 35.2862L24.5904 32.3035C24.4913 32.247 24.3972 32.1782 24.3104 32.0972C24.287 32.0753 24.2642 32.0527 24.2423 32.0294C23.984 31.756 23.8481 31.4093 23.8345 31.0587C23.8188 30.6555 23.9648 30.2472 24.2727 29.9393L31.2727 22.9393C31.2728 22.9392 31.273 22.939 31.2732 22.9388L39.2727 14.9393ZM33.3951 25.0595C33.3947 25.0599 33.3944 25.0603 33.394 25.0607L27.7524 30.7022L30.1008 32.1112L35.2727 26.9393C35.8584 26.3536 36.8082 26.3536 37.394 26.9393L44.3333 33.8787L50.212 28L40.3333 18.1213L33.3951 25.0595Z" fill="white"/>
<path fill-rule="evenodd" clip-rule="evenodd" d="M32.2727 39.9393C32.8584 39.3536 33.8082 39.3536 34.394 39.9393L37.394 42.9393C37.9798 43.5251 37.9798 44.4749 37.394 45.0607C36.8082 45.6464 35.8584 45.6464 35.2727 45.0607L32.2727 42.0607C31.6869 41.4749 31.6869 40.5251 32.2727 39.9393Z" fill="white"/>
<path fill-rule="evenodd" clip-rule="evenodd" d="M36.2727 35.9393C36.8584 35.3536 37.8082 35.3536 38.394 35.9393L41.394 38.9393C41.9798 39.5251 41.9798 40.4749 41.394 41.0607C40.8082 41.6464 39.8584 41.6464 39.2727 41.0607L36.2727 38.0607C35.6869 37.4749 35.6869 36.5251 36.2727 35.9393Z" fill="white"/>
</svg>
