<svg width="147" height="96" viewBox="0 0 147 96" fill="none" xmlns="http://www.w3.org/2000/svg">
<g id="ITDR.PRO &#226;&#128;&#148; &#208;&#190; &#208;&#186;&#208;&#190;&#208;&#188;&#208;&#191;&#208;&#176;&#208;&#189;&#208;&#184;&#208;&#184;, &#208;&#176;&#208;&#180;&#209;&#128;&#208;&#181;&#209;&#129;, &#209;&#130;&#208;&#181;&#208;&#187;&#208;&#181;&#209;&#132;&#208;&#190;&#208;&#189;, &#208;&#191;&#209;&#131;&#208;&#177;&#208;&#187;&#208;&#184;&#208;&#186;&#208;&#176;&#209;&#134;&#208;&#184;&#208;&#184; _ ADPASS-15 1" clip-path="url(#clip0_1085_16077)">
<path id="Vector" d="M142.22 0H4.78049C2.1403 0 0 2.14903 0 4.8V91.2C0 93.851 2.1403 96 4.78049 96H142.22C144.86 96 147 93.851 147 91.2V4.8C147 2.14903 144.86 0 142.22 0Z" fill="white"/>
<path id="Vector_2" d="M15.7418 55.4428H20.8372L18.8019 27.0042H18.1524L15.7418 55.4428Z" fill="#6000DB"/>
<path id="Vector_3" d="M37.7906 14.9338H26.0264L33.5252 81.0374H39.9197C47.5194 81.0374 51.59 75.3715 51.59 69.0614V29.8768C51.59 18.2698 47.5194 14.9338 37.7906 14.9338ZM41.7745 68.222C41.7745 72.4986 40.5692 73.1499 38.072 73.1499H35.7553V22.8214H38.072C40.5692 22.8214 41.7745 23.4727 41.7745 27.7422V68.222Z" fill="#6000DB"/>
<path id="Vector_4" d="M14.818 64.0828L12.6888 81.0373H23.6158L21.761 64.0828H14.818Z" fill="#6000DB"/>
<path id="Vector_5" d="M85.3671 27.0042L82.9565 55.4428H88.052L86.0167 27.0042H85.3671Z" fill="#6000DB"/>
<path id="Vector_6" d="M61.0592 22.8215V47.8012C63.946 47.8012 67.0783 47.425 67.0783 44.8271V29.1388C67.0783 23.0097 65.0431 22.8215 61.0592 22.8215Z" fill="#6000DB"/>
<path id="Vector_7" d="M82.0326 64.0828L79.9036 81.0373H90.8304L88.9756 64.0828H82.0326Z" fill="#6000DB"/>
<path id="Vector_8" d="M61.0592 55.6887V81.0158H71.0118L74.3607 51.4917C71.8201 54.6757 67.3671 55.6887 61.0592 55.6887Z" fill="#6000DB"/>
<path id="Vector_9" d="M134.301 38.5171V24.5873C134.301 20.4047 132.712 17.6622 130.382 15.9399C129.471 15.2785 128.373 14.9261 127.249 14.9341H99.9748C98.7639 14.9142 97.58 15.2929 96.6043 16.0123C95.3487 16.9503 94.3546 18.1963 93.7174 19.6304L96.4456 43.6911C101.13 50.5004 108.614 56.796 108.614 63.1856V70.1469C108.614 73.4901 107.596 74.2283 105.648 74.2283C103.699 74.2283 102.595 73.5047 102.595 70.1469V55.8119H97.8169L100.704 81.0666H126.621C127.541 81.0721 128.448 80.843 129.256 80.4008C132.178 78.7655 134.308 75.8564 134.308 71.037V59.3143C134.308 52.6279 118.473 38.3289 118.473 33.5965V25.4195C118.473 22.0763 119.823 21.3381 121.858 21.3381C123.474 21.3381 124.825 22.0617 124.825 25.4195V38.5171H134.301ZM124.918 63.2147V70.176C124.918 73.5191 123.901 74.2572 121.951 74.2572C120.003 74.2572 118.458 73.5336 118.458 70.176V59.3215C118.458 52.6351 102.624 38.3363 102.624 33.6037V25.4195C102.624 22.0835 104.067 21.3381 106.117 21.3381C107.618 21.3381 109.083 22.0617 109.083 25.4195V34.0596C109.09 44.8272 124.925 53.9304 124.925 63.2147H124.918Z" fill="#6000DB"/>
</g>
<defs>
<clipPath id="clip0_1085_16077">
<rect width="147" height="96" fill="white"/>
</clipPath>
</defs>
</svg>
