<svg width="96" height="97" viewBox="0 0 96 97" fill="none" xmlns="http://www.w3.org/2000/svg">
<path d="M48 0.5C21.49 0.5 0 21.99 0 48.5C0 75.01 21.49 96.5 48 96.5C74.51 96.5 96 75.01 96 48.5C96 21.99 74.51 0.5 48 0.5ZM66.46 54.655C66.46 54.655 70.705 58.845 71.75 60.79C71.78 60.83 71.795 60.87 71.805 60.89C72.23 61.605 72.33 62.16 72.12 62.575C71.77 63.265 70.57 63.605 70.16 63.635H62.66C62.14 63.635 61.05 63.5 59.73 62.59C58.715 61.88 57.715 60.715 56.74 59.58C55.285 57.89 54.025 56.43 52.755 56.43C52.5937 56.4297 52.4334 56.455 52.28 56.505C51.32 56.815 50.09 58.185 50.09 61.835C50.09 62.975 49.19 63.63 48.555 63.63H45.12C43.95 63.63 37.855 63.22 32.455 57.525C25.845 50.55 19.895 36.56 19.845 36.43C19.47 35.525 20.245 35.04 21.09 35.04H28.665C29.675 35.04 30.005 35.655 30.235 36.2C30.505 36.835 31.495 39.36 33.12 42.2C35.755 46.83 37.37 48.71 38.665 48.71C38.9078 48.7071 39.1463 48.6454 39.36 48.53C41.05 47.59 40.735 41.565 40.66 40.315C40.66 40.08 40.655 37.62 39.79 36.44C39.17 35.585 38.115 35.26 37.475 35.14C37.734 34.7826 38.0753 34.4927 38.47 34.295C39.63 33.715 41.72 33.63 43.795 33.63H44.95C47.2 33.66 47.78 33.805 48.595 34.01C50.245 34.405 50.28 35.47 50.135 39.115C50.09 40.15 50.045 41.32 50.045 42.7C50.045 43 50.03 43.32 50.03 43.66C49.98 45.515 49.92 47.62 51.23 48.485C51.4009 48.5921 51.5983 48.6493 51.8 48.65C52.255 48.65 53.625 48.65 57.335 42.285C58.4792 40.2363 59.4734 38.1074 60.31 35.915C60.385 35.785 60.605 35.385 60.865 35.23C61.0569 35.1322 61.2696 35.0824 61.485 35.085H70.39C71.36 35.085 72.025 35.23 72.15 35.605C72.37 36.2 72.11 38.015 68.045 43.52L66.23 45.915C62.545 50.745 62.545 50.99 66.46 54.655Z" fill="white"/>
</svg>
