<svg width="101" height="96" viewBox="0 0 101 96" fill="none" xmlns="http://www.w3.org/2000/svg">
<path d="M16.4851 4.41956C38.5568 -1.47319 61.7881 -1.47319 83.8597 4.41956C87.4944 5.39827 90.7822 7.37555 93.3505 10.1273C95.9188 12.8791 97.6649 16.2953 98.3909 19.9887C100.986 33.3903 100.986 47.1583 98.3909 60.5294C97.6232 64.5253 95.6637 68.1951 92.7703 71.0558C89.8768 73.9166 86.185 75.8343 82.1807 76.5565C81.6401 76.6979 81.1613 77.014 80.819 77.4557C80.4767 77.8974 80.29 78.4399 80.288 78.9987V94.9952C80.288 95.3615 80.0438 95.7279 79.6774 95.911C79.5032 95.9896 79.3102 96.0169 79.121 95.9899C78.9318 95.9628 78.7542 95.8826 78.609 95.7584L62.3682 81.9904C61.0002 80.8341 59.2419 80.2443 57.4533 80.3419C43.6548 81.1051 29.8257 79.6703 16.4851 76.1291C12.8465 75.148 9.55594 73.1662 6.98728 70.4086C4.41861 67.6511 2.6748 64.2284 1.95395 60.5294C-0.651317 47.1517 -0.651317 33.397 1.95395 20.0192C2.6748 16.3202 4.41861 12.8976 6.98728 10.14C9.55594 7.38247 12.8465 5.40061 16.4851 4.41956Z" fill="white"/>
<path fill-rule="evenodd" clip-rule="evenodd" d="M74.6404 20.3845C74.6404 18.8581 73.4193 17.637 71.8929 17.637H30.4058C28.8794 17.637 27.6583 18.8581 27.6583 20.3845V30.0617C27.6583 31.5881 28.8794 32.8092 30.4058 32.8092H40.0831C41.6095 32.8092 42.8306 34.0609 42.8306 35.5872V61.841C42.8306 63.3674 44.0822 64.6191 45.6086 64.6191H56.6902C58.2165 64.6191 59.4376 63.398 59.4376 61.8716V35.6178C59.4376 34.0914 60.6588 32.8397 62.1851 32.8397H71.8929C73.4193 32.8397 74.6404 31.6186 74.6404 30.0923V20.3539V20.3845Z" fill="#6000DB"/>
</svg>
