<svg width="60" height="60" viewBox="0 0 60 60" fill="none" xmlns="http://www.w3.org/2000/svg">
<path id="Vector" d="M23.8594 27.2076C24.442 26.7857 24.7232 26.0893 24.7232 25.1317C24.7433 24.6763 24.6496 24.2277 24.4487 23.8192C24.2679 23.4911 24 23.2165 23.6719 23.0223C23.3316 22.816 22.9538 22.6794 22.5603 22.6205C22.1317 22.5402 21.6964 22.5 21.2679 22.5067H16.5603V27.8437H21.6562C22.5335 27.8504 23.2768 27.6362 23.8594 27.2076ZM24.6496 32.029C23.9933 31.5268 23.1161 31.279 22.0246 31.279H16.5469V37.5737H21.9174C22.4196 37.5737 22.8817 37.5268 23.3304 37.433C23.7549 37.35 24.1595 37.1864 24.5223 36.9509C24.8638 36.7299 25.1384 36.4286 25.346 36.0402C25.5469 35.6518 25.6473 35.1562 25.6473 34.5603C25.6473 33.375 25.3125 32.5379 24.6496 32.029ZM30 0C13.433 0 0 13.433 0 30C0 46.567 13.433 60 30 60C46.567 60 60 46.567 60 30C60 13.433 46.567 0 30 0ZM35.7924 19.2121H45.0603V21.4688H35.7924V19.2121ZM30 37.8214C29.5665 38.6443 28.9475 39.355 28.192 39.8973C27.4018 40.4464 26.5246 40.8482 25.5938 41.0826C24.6199 41.3435 23.6153 41.4719 22.6071 41.4643H11.5179V18.6228H22.2991C23.3906 18.6228 24.3817 18.7232 25.2857 18.9107C26.183 19.0982 26.9464 19.4196 27.5893 19.8549C28.2254 20.2902 28.7277 20.8728 29.0826 21.596C29.4308 22.3125 29.6116 23.2098 29.6116 24.2746C29.6116 25.4263 29.3504 26.3772 28.8281 27.1473C28.2991 27.9174 27.5357 28.5402 26.4978 29.029C27.9107 29.4308 28.9487 30.1473 29.6317 31.1518C30.3281 32.1696 30.6696 33.3884 30.6696 34.8214C30.6696 35.9866 30.4487 36.9844 30 37.8214ZM48.6696 34.2857H36.7232C36.7232 35.5848 37.1719 36.8304 37.8482 37.5C38.5312 38.1629 39.5089 38.4978 40.7879 38.4978C41.7121 38.4978 42.4955 38.2634 43.1652 37.8013C43.8281 37.3393 44.2299 36.8504 44.3772 36.3415H48.3817C47.7388 38.3304 46.7612 39.75 45.4353 40.6071C44.1228 41.4643 42.5156 41.8929 40.6473 41.8929C39.3415 41.8929 38.1696 41.6786 37.1183 41.2701C36.1071 40.875 35.1964 40.2723 34.4464 39.4955C33.7069 38.6978 33.1353 37.7596 32.7656 36.7366C32.3571 35.6049 32.1562 34.4129 32.1696 33.2143C32.1696 31.9754 32.3772 30.8237 32.779 29.7522C33.5491 27.6696 35.1496 26.0022 37.192 25.1384C38.2835 24.683 39.4554 24.4554 40.6406 24.4687C42.0469 24.4687 43.2656 24.7366 44.3237 25.2857C45.3422 25.8101 46.2266 26.5616 46.9085 27.4821C47.5848 28.3996 48.0603 29.4442 48.3616 30.6228C48.6496 31.7812 48.75 33 48.6696 34.2857ZM40.5 27.8839C39.7768 27.8839 39.1674 28.0112 38.6987 28.2589C38.2299 28.5067 37.8415 28.8147 37.5469 29.1696C37.2663 29.5123 37.0589 29.9089 36.9375 30.3348C36.8304 30.6897 36.7567 31.0513 36.7299 31.4196H44.1295C44.0223 30.2612 43.6205 29.404 43.0848 28.8013C42.5223 28.2054 41.6183 27.8839 40.5 27.8839Z" fill="#6000DB"/>
</svg>
