<svg width="758" height="275" viewBox="0 0 758 275" fill="none" xmlns="http://www.w3.org/2000/svg">
<path d="M184.55 177.964H214V228.25H184.55V275H129.971V228.25H0V177.964L91.4899 0H149.604L58.5064 177.964H129.971V112.75H184.55V177.964Z" fill="#6000DB"/>
<path d="M379.001 4.99707C304.561 4.99707 244 65.5585 244 139.998C244 214.438 304.561 275 379.001 275C453.441 275 514 214.438 514 139.998C514 65.5585 453.441 4.99707 379.001 4.99707ZM379.001 253.877C316.209 253.877 265.123 202.79 265.123 139.998C265.123 77.2065 316.209 26.1203 379.001 26.1203C441.793 26.1203 492.877 77.2065 492.877 139.998C492.877 202.79 441.793 253.877 379.001 253.877Z" fill="#6000DB"/>
<path d="M379.001 152.062C360.702 152.062 345.814 166.95 345.814 185.248V207.873C345.814 213.707 350.542 218.435 356.376 218.435H401.626C407.46 218.435 412.187 213.707 412.187 207.873V185.248C412.187 166.95 397.299 152.062 379.001 152.062ZM391.064 197.311H366.938V185.248C366.938 178.598 372.35 173.185 379.001 173.185C385.651 173.185 391.064 178.598 391.064 185.248V197.311Z" fill="#6000DB"/>
<path d="M412.939 72.8745C407.105 72.8745 402.377 77.6025 402.377 83.4361V128.686C402.377 134.52 407.105 139.248 412.939 139.248C418.772 139.248 423.5 134.52 423.5 128.686V83.4361C423.5 77.6025 418.772 72.8745 412.939 72.8745Z" fill="#6000DB"/>
<path d="M355.625 128.686V83.4361C355.625 77.6025 350.894 72.8745 345.064 72.8745C339.23 72.8745 334.502 77.6025 334.502 83.4361V128.686C334.502 134.52 339.23 139.248 345.064 139.248C350.894 139.248 355.625 134.52 355.625 128.686Z" fill="#6000DB"/>
<path d="M728.55 177.964H758V228.25H728.55V275H673.971V228.25H544V177.964L635.49 0H693.604L602.506 177.964H673.971V112.75H728.55V177.964Z" fill="#6000DB"/>
</svg>
