<svg width="65" height="64" viewBox="0 0 65 64" fill="none" xmlns="http://www.w3.org/2000/svg">
<rect x="0.666656" width="64" height="64" rx="12" fill="#9CEDA4"/>
<path fill-rule="evenodd" clip-rule="evenodd" d="M32.6667 12.5C25.7631 12.5 20.1667 18.0964 20.1667 25C20.1667 29.1084 22.1472 32.7538 25.2118 35.0348C25.8764 35.5294 26.0142 36.4691 25.5196 37.1337C25.0249 37.7982 24.0852 37.936 23.4207 37.4414C19.6282 34.6188 17.1667 30.0966 17.1667 25C17.1667 16.4396 24.1062 9.5 32.6667 9.5C41.2271 9.5 48.1667 16.4396 48.1667 25C48.1667 30.022 45.7766 34.4865 42.0782 37.3165C41.4203 37.8199 40.4788 37.6947 39.9754 37.0367C39.472 36.3788 39.5972 35.4374 40.2551 34.9339C43.2437 32.6471 45.1667 29.0484 45.1667 25C45.1667 18.0964 39.5702 12.5 32.6667 12.5Z" fill="white"/>
<path fill-rule="evenodd" clip-rule="evenodd" d="M32.6667 23.5C33.1419 23.5 33.5891 23.7252 33.872 24.1072L53.872 51.1072C54.2092 51.5624 54.2612 52.1688 54.0063 52.6748C53.7514 53.1808 53.2332 53.5 52.6667 53.5H12.6667C12.1001 53.5 11.5819 53.1808 11.327 52.6748C11.0721 52.1688 11.1241 51.5624 11.4613 51.1072L31.4613 24.1072C31.7442 23.7252 32.1914 23.5 32.6667 23.5ZM15.6445 50.5H49.6889L32.6667 27.52L15.6445 50.5Z" fill="white"/>
</svg>
