<svg width="64" height="64" viewBox="0 0 64 64" fill="none" xmlns="http://www.w3.org/2000/svg">
<path d="M0 32C0 14.3269 14.3269 0 32 0C49.6731 0 64 14.3269 64 32C64 49.6731 49.6731 64 32 64C14.3269 64 0 49.6731 0 32Z" fill="white"/>
<path d="M33.0607 14.9393C32.4749 14.3536 31.5251 14.3536 30.9393 14.9393L21.3934 24.4853C20.8076 25.0711 20.8076 26.0208 21.3934 26.6066C21.9792 27.1924 22.9289 27.1924 23.5147 26.6066L32 18.1213L40.4853 26.6066C41.0711 27.1924 42.0208 27.1924 42.6066 26.6066C43.1924 26.0208 43.1924 25.0711 42.6066 24.4853L33.0607 14.9393ZM33.5 48V16H30.5L30.5 48H33.5Z" fill="#6000DB"/>
</svg>
