<svg width="100" height="100" viewBox="0 0 100 100" fill="none" xmlns="http://www.w3.org/2000/svg">
<path fill-rule="evenodd" clip-rule="evenodd" d="M29.1667 53.125C25.1396 53.125 21.875 56.3896 21.875 60.4167C21.875 64.4437 25.1396 67.7083 29.1667 67.7083C33.1937 67.7083 36.4583 64.4437 36.4583 60.4167C36.4583 56.3896 33.1937 53.125 29.1667 53.125ZM15.625 60.4167C15.625 52.9378 21.6878 46.875 29.1667 46.875C36.6455 46.875 42.7083 52.9378 42.7083 60.4167C42.7083 67.8955 36.6455 73.9583 29.1667 73.9583C21.6878 73.9583 15.625 67.8955 15.625 60.4167Z" fill="white"/>
<path fill-rule="evenodd" clip-rule="evenodd" d="M70.8334 53.125C66.8063 53.125 63.5417 56.3896 63.5417 60.4167C63.5417 64.4437 66.8063 67.7083 70.8334 67.7083C74.8605 67.7083 78.1251 64.4437 78.1251 60.4167C78.1251 56.3896 74.8605 53.125 70.8334 53.125ZM57.2917 60.4167C57.2917 52.9378 63.3546 46.875 70.8334 46.875C78.3123 46.875 84.3751 52.9378 84.3751 60.4167C84.3751 67.8955 78.3123 73.9583 70.8334 73.9583C63.3546 73.9583 57.2917 67.8955 57.2917 60.4167Z" fill="white"/>
<path fill-rule="evenodd" clip-rule="evenodd" d="M49.9999 11.4584C45.9728 11.4584 42.7083 14.723 42.7083 18.75C42.7083 22.7771 45.9728 26.0417 49.9999 26.0417C54.027 26.0417 57.2916 22.7771 57.2916 18.75C57.2916 14.723 54.027 11.4584 49.9999 11.4584ZM36.4583 18.75C36.4583 11.2712 42.5211 5.20837 49.9999 5.20837C57.4788 5.20837 63.5416 11.2712 63.5416 18.75C63.5416 26.2289 57.4788 32.2917 49.9999 32.2917C42.5211 32.2917 36.4583 26.2289 36.4583 18.75Z" fill="white"/>
<path fill-rule="evenodd" clip-rule="evenodd" d="M5.20825 91.6667C5.20825 78.435 15.9347 67.7084 29.1666 67.7084C42.3983 67.7084 53.1249 78.435 53.1249 91.6667C53.1249 93.3926 51.7258 94.7917 49.9999 94.7917C48.274 94.7917 46.8749 93.3926 46.8749 91.6667C46.8749 81.8868 38.9465 73.9584 29.1666 73.9584C19.3865 73.9584 11.4583 81.8868 11.4583 91.6667C11.4583 93.3926 10.0591 94.7917 8.33325 94.7917C6.60736 94.7917 5.20825 93.3926 5.20825 91.6667Z" fill="white"/>
<path fill-rule="evenodd" clip-rule="evenodd" d="M46.875 91.6667C46.875 78.435 57.6016 67.7084 70.8333 67.7084C84.0651 67.7084 94.7917 78.435 94.7917 91.6667C94.7917 93.3926 93.3926 94.7917 91.6667 94.7917C89.9408 94.7917 88.5417 93.3926 88.5417 91.6667C88.5417 81.8868 80.6133 73.9584 70.8333 73.9584C61.0534 73.9584 53.125 81.8868 53.125 91.6667C53.125 93.3926 51.7259 94.7917 50 94.7917C48.2741 94.7917 46.875 93.3926 46.875 91.6667Z" fill="white"/>
<path fill-rule="evenodd" clip-rule="evenodd" d="M26.0417 50C26.0417 36.7682 36.7684 26.0416 50.0001 26.0416C63.2318 26.0416 73.9584 36.7682 73.9584 50C73.9584 51.7259 72.5593 53.125 70.8334 53.125C69.1075 53.125 67.7084 51.7259 67.7084 50C67.7084 40.22 59.78 32.2916 50.0001 32.2916C40.2201 32.2916 32.2917 40.22 32.2917 50C32.2917 51.7259 30.8926 53.125 29.1667 53.125C27.4409 53.125 26.0417 51.7259 26.0417 50Z" fill="white"/>
</svg>
