<svg width="100" height="100" viewBox="0 0 100 100" fill="none" xmlns="http://www.w3.org/2000/svg">
<path d="M45.4733 52.878C45.5059 52.9094 45.5391 52.9399 45.5727 52.9695C49.9797 57.3785 51.7038 63.7812 50.0997 69.7897L50.0997 69.7898C48.481 75.8538 43.7164 80.6 37.6029 82.2151C31.4937 83.8287 24.9874 82.0639 20.5507 77.5994C13.897 70.7336 13.9958 59.8366 20.7768 53.0913C27.5705 46.3334 38.5621 46.2382 45.4733 52.878ZM49.6605 48.2349C40.2926 39.3799 25.5245 39.5529 16.369 48.6602L16.369 48.6603C7.15821 57.8227 7.02845 72.6444 16.0783 81.9652L16.0781 81.9653L16.1016 81.989C22.1165 88.0529 30.9308 90.4418 39.1991 88.2578L39.1992 88.2578C47.4686 86.0732 53.9378 79.6453 56.1382 71.4017C58.3393 63.1572 55.9286 54.3754 49.8311 48.3905C49.7757 48.3362 49.7188 48.2843 49.6605 48.2349ZM53.119 70.5958L56.1382 71.4017L53.119 70.5958Z" fill="white"/>
<path d="M85.5429 12.3737C86.7633 13.5941 86.7633 15.5727 85.5429 16.7931L50.1262 52.2098C48.9058 53.4301 46.9272 53.4301 45.7068 52.2098C44.4864 50.9894 44.4864 49.0107 45.7068 47.7903L81.1235 12.3737C82.3438 11.1533 84.3225 11.1533 85.5429 12.3737Z" fill="white"/>
<path d="M74.1267 19.8678C75.3458 18.6552 77.3154 18.6552 78.5345 19.8678L89.844 31.1178C90.4337 31.7044 90.7652 32.5017 90.7652 33.3334C90.7652 34.165 90.4337 34.9624 89.844 35.5489L76.6495 48.6739C75.4304 49.8865 73.4607 49.8865 72.2417 48.6739L60.9323 37.4239C60.3427 36.8374 60.0112 36.04 60.0112 35.2084C60.0112 34.3767 60.3427 33.5794 60.9324 32.9928L74.1267 19.8678ZM76.3306 26.4912L67.5673 35.2084L74.4456 42.0506L83.209 33.3334L76.3306 26.4912Z" fill="white"/>
</svg>
