<svg width="62" height="40" viewBox="0 0 62 40" fill="none" xmlns="http://www.w3.org/2000/svg">
<g clip-path="url(#clip0_1085_21018)">
<path d="M59.2581 0H1.99187C0.891791 0 0 0.89543 0 2V38C0 39.1046 0.891791 40 1.99187 40H59.2581C60.3582 40 61.25 39.1046 61.25 38V2C61.25 0.89543 60.3582 0 59.2581 0Z" fill="#6000DB"/>
<path d="M6.55859 23.1014H8.68168L7.83364 11.252H7.56299L6.55859 23.1014Z" fill="white"/>
<path d="M15.7465 6.22266H10.8447L13.9692 33.7658H16.6336C19.8002 33.7658 21.4963 31.405 21.4963 28.7758V12.4489C21.4963 7.61266 19.8002 6.22266 15.7465 6.22266ZM17.4064 28.4261C17.4064 30.208 16.9042 30.4794 15.8637 30.4794H14.8984V9.50916H15.8637C16.9042 9.50916 17.4064 9.78051 17.4064 11.5595V28.4261Z" fill="white"/>
<path d="M6.17424 26.7012L5.28711 33.7656H9.84003L9.06718 26.7012H6.17424Z" fill="white"/>
<path d="M35.5698 11.252L34.5654 23.1014H36.6885L35.8405 11.252H35.5698Z" fill="white"/>
<path d="M25.4414 9.50977V19.918C26.6442 19.918 27.9494 19.7612 27.9494 18.6788V12.142C27.9494 9.58817 27.1014 9.50977 25.4414 9.50977Z" fill="white"/>
<path d="M34.18 26.7012L33.293 33.7656H37.8458L37.073 26.7012H34.18Z" fill="white"/>
<path d="M25.4414 23.2038V33.7568H29.5883L30.9837 21.4551C29.9251 22.7817 28.0697 23.2038 25.4414 23.2038Z" fill="white"/>
<path d="M55.9585 16.0492V10.2451C55.9585 8.50237 55.2967 7.35967 54.3257 6.64207C53.9462 6.36647 53.4886 6.21962 53.0205 6.22297H41.6561C41.1515 6.21467 40.6583 6.37247 40.2517 6.67222C39.7286 7.06307 39.3143 7.58222 39.0488 8.17977L40.1856 18.2051C42.1373 21.0423 45.2557 23.6654 45.2557 26.3278V29.2283C45.2557 30.6213 44.8317 30.9289 44.0197 30.9289C43.2078 30.9289 42.7477 30.6274 42.7477 29.2283V23.2554H40.757L41.9598 33.7782H52.7586C53.142 33.7805 53.52 33.685 53.8566 33.5008C55.0741 32.8194 55.9615 31.6073 55.9615 29.5992V24.7147C55.9615 21.9287 49.3636 15.9708 49.3636 13.999V10.5919C49.3636 9.19887 49.9261 8.89132 50.7742 8.89132C51.4474 8.89132 52.0101 9.19282 52.0101 10.5919V16.0492H55.9585ZM52.049 26.3399V29.2404C52.049 30.6334 51.6252 30.9409 50.813 30.9409C50.0013 30.9409 49.3576 30.6394 49.3576 29.2404V24.7177C49.3576 21.9317 42.7597 15.9739 42.7597 14.002V10.5919C42.7597 9.20187 43.3612 8.89132 44.2152 8.89132C44.8407 8.89132 45.4512 9.19282 45.4512 10.5919V14.1919C45.4542 18.6784 52.052 22.4714 52.052 26.3399H52.049Z" fill="white"/>
</g>
<defs>
<clipPath id="clip0_1085_21018">
<rect width="61.25" height="40" fill="white"/>
</clipPath>
</defs>
</svg>
