<svg width="96" height="97" viewBox="0 0 96 97" fill="none" xmlns="http://www.w3.org/2000/svg">
<path d="M48 0.5C21.504 0.5 0 22.004 0 48.5C0 74.996 21.504 96.5 48 96.5C74.496 96.5 96 74.996 96 48.5C96 22.004 74.496 0.5 48 0.5ZM70.272 33.14C69.552 40.724 66.432 59.156 64.848 67.652C64.176 71.252 62.832 72.452 61.584 72.596C58.8 72.836 56.688 70.772 54 68.996C49.776 66.212 47.376 64.484 43.296 61.796C38.544 58.676 41.616 56.948 44.352 54.164C45.072 53.444 57.36 42.26 57.6 41.252C57.6333 41.0993 57.6289 40.9408 57.5871 40.7903C57.5453 40.6397 57.4673 40.5016 57.36 40.388C57.072 40.148 56.688 40.244 56.352 40.292C55.92 40.388 49.2 44.852 36.096 53.684C34.176 54.98 32.448 55.652 30.912 55.604C29.184 55.556 25.92 54.644 23.472 53.828C20.448 52.868 18.096 52.34 18.288 50.66C18.384 49.796 19.584 48.932 21.84 48.02C35.856 41.924 45.168 37.892 49.824 35.972C63.168 30.404 65.904 29.444 67.728 29.444C68.112 29.444 69.024 29.54 69.6 30.02C70.08 30.404 70.224 30.932 70.272 31.316C70.224 31.604 70.32 32.468 70.272 33.14Z" fill="white"/>
</svg>
