<svg width="96" height="96" viewBox="0 0 96 96" fill="none" xmlns="http://www.w3.org/2000/svg">
<mask id="mask0_1085_16087" style="mask-type:alpha" maskUnits="userSpaceOnUse" x="0" y="0" width="96" height="96">
<path d="M48 96C74.5097 96 96 74.5097 96 48C96 21.4903 74.5097 0 48 0C21.4903 0 0 21.4903 0 48C0 74.5097 21.4903 96 48 96Z" fill="white"/>
</mask>
<g mask="url(#mask0_1085_16087)">
<path fill-rule="evenodd" clip-rule="evenodd" d="M-121.115 6.24701H-103.649L-84.9083 59.1554L-61.9601 1.01992L-38.6294 59.1554L-20.2709 6.24701H-2.67724L-36.9721 94.2151L-61.9601 36.8446L-86.9481 94.2151L-121.115 6.24701ZM155.538 88.7331L135.139 58.008H127.745V88.7331H112.701V6.24701H138.327C144.446 6.24701 149.673 7.26693 154.135 9.43426C158.47 11.6016 162.04 14.5339 164.462 18.3586C167.012 22.3108 168.287 26.9004 168.287 32C168.287 37.2271 167.012 41.8167 164.462 45.7689C162.04 49.5936 158.47 52.6534 154.135 54.8207C153.116 55.3307 151.968 55.7131 150.693 56.2231L173.769 88.7331H155.538ZM137.944 45.259C141.004 45.259 143.639 44.749 145.849 43.7291C148.058 42.7092 149.759 41.2643 150.948 39.3944C152.223 37.4396 152.861 35.1022 152.861 32.3825C152.861 29.5777 152.223 27.2404 150.948 25.3705C149.759 23.5006 148.058 22.0558 145.849 21.0359C143.639 20.0159 141.004 19.506 137.944 19.506H127.873V45.259H137.944ZM231.139 88.7331L200.797 52.1434V88.7331H185.371V6.24701H200.797V38.757L229.865 6.24701H248.351L213.418 44.8765L250.008 88.7331H231.139ZM282.39 90.3904C277.673 90.3904 273.084 89.498 269.004 87.4582C264.924 85.5458 261.227 82.996 258.167 79.8088C254.98 76.6215 252.558 73.0518 250.773 69.2271L250.518 68.7171L261.865 60.6853L262.247 61.4502C264.032 64.51 265.817 67.3147 267.857 69.4821C269.811 71.7769 272.022 73.5618 274.486 74.8367C276.866 76.1116 279.5 76.749 282.39 76.749C285.96 76.749 288.765 75.7291 290.932 73.8167C293.1 72.0319 294.247 69.6096 294.247 66.5498C294.247 63.745 293.568 61.5352 292.207 59.9203C290.847 58.1355 288.892 56.648 286.343 55.4582C283.793 54.1833 280.733 52.9084 277.418 51.761C275.379 50.996 273.084 50.1036 270.661 48.8287C268.112 47.6388 265.731 46.1089 263.522 44.239C261.1 42.3267 259.187 40.0319 257.785 37.3546C256.255 34.5498 255.49 31.2351 255.49 27.2829C255.49 22.8207 256.637 18.8685 258.932 15.5538C261.227 12.1116 264.414 9.43426 268.239 7.52191C272.191 5.73705 276.653 4.71713 281.626 4.71713C286.47 4.71713 290.805 5.60956 294.375 7.39442C298.072 9.17928 301.132 11.4741 303.681 14.0239C306.231 16.7012 308.143 19.6335 309.418 22.4382L309.801 23.0757L297.562 30.0877L297.179 29.4502C296.159 27.4954 294.885 25.668 293.355 23.9681C291.825 22.2683 290.082 20.9084 288.128 19.8884C286.257 18.9536 284.006 18.4861 281.371 18.4861C277.801 18.4861 275.209 19.251 273.594 20.7809C271.936 22.4382 271.171 24.2231 271.171 26.3904C271.171 28.3452 271.723 30.0876 272.829 31.6175C274.104 33.1474 276.016 34.6348 278.566 36.0797C281.243 37.4821 284.813 39.012 289.02 40.5418C291.57 41.4343 293.992 42.4542 296.542 43.8566C299.006 45.1315 301.259 46.7888 303.299 48.8287C305.211 50.741 306.996 53.1633 308.143 55.8406C309.418 58.6454 310.183 61.8327 310.183 65.5299C310.183 69.3546 309.291 72.9243 307.761 75.9841C306.231 79.0438 304.191 81.7211 301.514 83.8885C298.964 85.9283 295.904 87.5857 292.717 88.7331C289.402 89.8805 285.96 90.3904 282.39 90.3904ZM326.63 88.7331V6.24701H351.745C357.737 6.24701 363.092 7.26693 367.426 9.30677C371.888 11.4741 375.458 14.4064 377.88 18.3586C380.43 22.1833 381.705 26.7729 381.705 32C381.705 37.3546 380.43 41.9442 377.88 45.8964C375.458 49.7211 371.888 52.7809 367.426 54.8207C363.092 56.988 357.737 58.008 351.745 58.008H341.673V88.7331H326.63ZM351.873 44.494C356.335 44.494 360.032 43.4741 362.709 41.3068C365.386 39.2669 366.789 36.2072 366.789 32C366.789 27.9203 365.386 24.8606 362.709 22.8207C360.032 20.7809 356.335 19.761 351.873 19.761H341.801V44.494H351.873ZM441.371 88.7331L432.064 67.8247H403.251L393.944 88.7331H376.988L417.657 0.76494L458.582 88.7331H441.371ZM427.602 54.8207L417.53 31.745L407.713 54.8207H427.602ZM501.418 90.008C495.426 90.008 489.689 88.988 484.462 86.9482C479.363 85.0359 474.773 81.9761 470.948 78.1514C467.124 74.3267 464.064 69.7371 461.896 64.51C459.729 59.4104 458.709 53.6733 458.709 47.4263C458.709 41.1793 459.729 35.4422 461.896 30.2151C464.064 24.988 467.124 20.5259 470.948 16.7012C474.773 12.8765 479.363 9.94422 484.462 7.77689C489.689 5.73705 495.426 4.71713 501.418 4.71713C507.41 4.71713 512.51 5.48207 516.462 7.01195C520.542 8.41434 524.239 10.7092 527.681 13.5139L527.936 13.7689V32.255L526.661 30.8526C524.877 28.7277 522.751 26.8154 520.287 25.1155C517.865 23.3307 515.187 22.0558 512.128 21.0359C509.068 20.1434 505.626 19.6335 501.801 19.6335C497.084 19.6335 492.622 20.7809 488.542 23.0757C484.462 25.243 481.147 28.5578 478.725 32.7649C476.175 36.8446 474.9 41.8167 474.9 47.4263C474.9 53.0359 476.175 57.8805 478.725 62.0877C481.147 66.1673 484.462 69.4821 488.542 71.7769C492.622 74.1992 497.084 75.3466 501.801 75.3466C505.626 75.3466 509.068 74.8367 512.128 73.8167C515.187 72.9243 517.865 71.5219 520.287 69.8645C522.709 68.0797 524.877 66.1673 526.661 64L527.936 62.4701V81.0837L527.681 81.3386C524.239 84.1434 520.542 86.3108 516.462 87.8406C512.51 89.3705 507.41 90.008 501.418 90.008ZM544.127 88.7331V6.24701H594.869V19.761H559.044V37.992H592.574V51.1235H559.044V75.2191H594.869V88.7331H544.127ZM0.637502 47.5538C0.637502 21.2908 21.9283 0 48.3188 0C74.5817 0 95.8726 21.2908 95.8726 47.5538C95.8726 73.8167 74.5817 95.1076 48.3188 95.1076C21.9283 95.1076 0.637502 73.8167 0.637502 47.5538ZM49.5937 3.69721H47.0439L37.6096 32.7649H7.012C6.75702 33.5299 6.50205 34.3373 6.24707 35.1873L30.9801 53.0359L21.5459 82.1036L23.5857 83.6335L48.1913 65.6574L73.0518 83.6335L75.0917 82.1036L65.6574 53.1633L90.3905 35.1873C90.1355 34.3373 89.8805 33.5299 89.6255 32.7649H59.0279L49.5937 3.69721ZM632.478 13.259C632.478 14.7038 632.223 16.0637 631.713 17.3386C631.118 18.6135 630.396 19.7185 629.546 20.6534C628.611 21.5034 627.506 22.1833 626.231 22.6932C624.956 23.2032 623.596 23.4582 622.151 23.4582C620.707 23.4582 619.347 23.2032 618.072 22.6932C616.797 22.1833 615.692 21.5034 614.757 20.6534C613.907 19.7185 613.185 18.6135 612.59 17.3386C612.08 16.0637 611.825 14.7038 611.825 13.259C611.825 11.7291 612.08 10.3267 612.59 9.05179C613.185 7.77689 613.907 6.71448 614.757 5.86454C615.692 4.92962 616.797 4.20717 618.072 3.69721C619.347 3.18725 620.707 2.93227 622.151 2.93227C623.596 2.93227 624.956 3.18725 626.231 3.69721C627.506 4.20717 628.611 4.92962 629.546 5.86454C630.396 6.71448 631.118 7.77689 631.713 9.05179C632.223 10.3267 632.478 11.7291 632.478 13.259ZM630.821 13.259C630.821 11.9841 630.608 10.7942 630.183 9.68924C629.759 8.58433 629.163 7.6494 628.398 6.88446C627.548 6.03452 626.614 5.39707 625.594 4.97211C624.574 4.54715 623.426 4.33466 622.151 4.33466C620.877 4.33466 619.729 4.54715 618.709 4.97211C617.604 5.39707 616.669 6.03452 615.904 6.88446C615.139 7.6494 614.544 8.58433 614.12 9.68924C613.695 10.7942 613.482 11.9841 613.482 13.259C613.482 14.5339 613.695 15.6813 614.12 16.7012C614.544 17.8062 615.139 18.741 615.904 19.506C616.669 20.356 617.604 20.9934 618.709 21.4183C619.729 21.8433 620.877 22.0558 622.151 22.0558C623.426 22.0558 624.574 21.8433 625.594 21.4183C626.614 20.9934 627.548 20.356 628.398 19.506C629.163 18.741 629.759 17.8062 630.183 16.7012C630.608 15.6813 630.821 14.5339 630.821 13.259ZM623.554 14.0239L626.996 18.8685H624.574L621.641 14.2789H620.367V18.8685H618.327V6.88446H622.024C623.299 6.88446 624.361 7.22444 625.211 7.90438C625.976 8.58433 626.359 9.47676 626.359 10.5817C626.359 11.6866 625.976 12.579 625.211 13.259C624.701 13.6839 624.149 13.9389 623.554 14.0239ZM620.367 12.6215H621.896C622.661 12.6215 623.257 12.4515 623.681 12.1116C624.106 11.7716 624.319 11.2616 624.319 10.5817C624.319 9.98672 624.106 9.51926 623.681 9.17928C623.257 8.83931 622.661 8.66932 621.896 8.66932H620.367V12.6215Z" fill="white"/>
</g>
</svg>
