<svg width="96" height="97" viewBox="0 0 96 97" fill="none" xmlns="http://www.w3.org/2000/svg">
<path d="M38.175 44.0321C39.1071 43.3571 39.5571 42.2429 39.5571 40.7107C39.5893 39.9821 39.4393 39.2643 39.1179 38.6107C38.8286 38.0857 38.4 37.6464 37.875 37.3357C37.3306 37.0056 36.7261 36.7871 36.0964 36.6929C35.4107 36.5643 34.7143 36.5 34.0286 36.5107H26.4964V45.05H34.65C36.0536 45.0607 37.2429 44.7179 38.175 44.0321ZM39.4393 51.7464C38.3893 50.9429 36.9857 50.5464 35.2393 50.5464H26.475V60.6179H35.0679C35.8714 60.6179 36.6107 60.5429 37.3286 60.3929C38.0078 60.26 38.6552 59.9982 39.2357 59.6214C39.7821 59.2679 40.2214 58.7857 40.5536 58.1643C40.875 57.5429 41.0357 56.75 41.0357 55.7964C41.0357 53.9 40.5 52.5607 39.4393 51.7464ZM48 0.5C21.4929 0.5 0 21.9929 0 48.5C0 75.0071 21.4929 96.5 48 96.5C74.5071 96.5 96 75.0071 96 48.5C96 21.9929 74.5071 0.5 48 0.5ZM57.2679 31.2393H72.0964V34.85H57.2679V31.2393ZM48 61.0143C47.3064 62.3308 46.316 63.468 45.1071 64.3357C43.8429 65.2143 42.4393 65.8571 40.95 66.2321C39.3919 66.6497 37.7845 66.8551 36.1714 66.8429H18.4286V30.2964H35.6786C37.425 30.2964 39.0107 30.4571 40.4571 30.7571C41.8929 31.0571 43.1143 31.5714 44.1429 32.2679C45.1607 32.9643 45.9643 33.8964 46.5321 35.0536C47.0893 36.2 47.3786 37.6357 47.3786 39.3393C47.3786 41.1821 46.9607 42.7036 46.125 43.9357C45.2786 45.1679 44.0571 46.1643 42.3964 46.9464C44.6571 47.5893 46.3179 48.7357 47.4107 50.3429C48.525 51.9714 49.0714 53.9214 49.0714 56.2143C49.0714 58.0786 48.7179 59.675 48 61.0143ZM77.8714 55.3571H58.7571C58.7571 57.4357 59.475 59.4286 60.5571 60.5C61.65 61.5607 63.2143 62.0964 65.2607 62.0964C66.7393 62.0964 67.9929 61.7214 69.0643 60.9821C70.125 60.2429 70.7679 59.4607 71.0036 58.6464H77.4107C76.3821 61.8286 74.8179 64.1 72.6964 65.4714C70.5964 66.8429 68.025 67.5286 65.0357 67.5286C62.9464 67.5286 61.0714 67.1857 59.3893 66.5321C57.7714 65.9 56.3143 64.9357 55.1143 63.6929C53.9311 62.4165 53.0166 60.9153 52.425 59.2786C51.7714 57.4679 51.45 55.5607 51.4714 53.6429C51.4714 51.6607 51.8036 49.8179 52.4464 48.1036C53.6786 44.7714 56.2393 42.1036 59.5071 40.7214C61.2536 39.9929 63.1286 39.6286 65.025 39.65C67.275 39.65 69.225 40.0786 70.9179 40.9571C72.5476 41.7961 73.9626 42.9985 75.0536 44.4714C76.1357 45.9393 76.8964 47.6107 77.3786 49.4964C77.8393 51.35 78 53.3 77.8714 55.3571ZM64.8 45.1143C63.6429 45.1143 62.6679 45.3179 61.9179 45.7143C61.1679 46.1107 60.5464 46.6036 60.075 47.1714C59.626 47.7197 59.2942 48.3542 59.1 49.0357C58.9286 49.6036 58.8107 50.1821 58.7679 50.7714H70.6071C70.4357 48.9179 69.7929 47.5464 68.9357 46.5821C68.0357 45.6286 66.5893 45.1143 64.8 45.1143Z" fill="white"/>
</svg>
