<svg width="41" height="40" viewBox="0 0 41 40" fill="none" xmlns="http://www.w3.org/2000/svg">
<path fill-rule="evenodd" clip-rule="evenodd" d="M-50.2148 2.60292H-42.9373L-35.1285 24.6481L-25.5668 0.424967L-15.8457 24.6481L-8.19625 2.60292H-0.865578L-15.1551 39.2563L-25.5668 15.3519L-35.9785 39.2563L-50.2148 2.60292ZM65.0574 36.9721L56.5581 24.17H53.477V36.9721H47.2088V2.60292H57.8861C60.4359 2.60292 62.6138 3.02789 64.4731 3.93094C66.2792 4.834 67.7666 6.05578 68.7758 7.6494C69.8383 9.29615 70.3695 11.2085 70.3695 13.3333C70.3695 15.5113 69.8383 17.4236 68.7758 19.0704C67.7666 20.664 66.2792 21.9389 64.4731 22.842C64.0481 23.0544 63.57 23.2138 63.0388 23.4263L72.6537 36.9721H65.0574ZM57.7267 18.8579C59.0016 18.8579 60.0996 18.6454 61.0202 18.2204C61.9408 17.7955 62.6494 17.1935 63.145 16.4143C63.6762 15.5998 63.9418 14.6259 63.9418 13.4927C63.9418 12.324 63.6762 11.3502 63.145 10.571C62.6494 9.79192 61.9408 9.18991 61.0202 8.76494C60.0996 8.33997 59.0016 8.12749 57.7267 8.12749H53.5302V18.8579H57.7267ZM96.558 36.9721L83.9153 21.7264V36.9721H77.4877V2.60292H83.9153V16.1487L96.0268 2.60292H103.729L89.1743 18.6985L104.42 36.9721H96.558ZM117.913 37.6627C115.947 37.6627 114.035 37.2908 112.335 36.4409C110.635 35.6441 109.095 34.5817 107.82 33.2536C106.492 31.9256 105.482 30.4382 104.739 28.8446L104.632 28.6321L109.36 25.2855L109.52 25.6042C110.263 26.8791 111.007 28.0478 111.857 28.9509C112.671 29.907 113.592 30.6507 114.619 31.1819C115.611 31.7131 116.708 31.9788 117.913 31.9788C119.4 31.9788 120.569 31.5538 121.472 30.757C122.375 30.0133 122.853 29.004 122.853 27.7291C122.853 26.5604 122.57 25.6397 122.003 24.9668C121.436 24.2231 120.622 23.6033 119.559 23.1076C118.497 22.5764 117.222 22.0452 115.841 21.5671C114.991 21.2483 114.035 20.8765 113.026 20.3453C111.963 19.8495 110.971 19.2121 110.051 18.4329C109.041 17.6361 108.245 16.6799 107.66 15.5644C107.023 14.3957 106.704 13.0146 106.704 11.3679C106.704 9.50863 107.182 7.86189 108.138 6.48074C109.095 5.04648 110.423 3.93094 112.016 3.13413C113.663 2.39044 115.522 1.96547 117.594 1.96547C119.613 1.96547 121.419 2.33732 122.906 3.08101C124.446 3.8247 125.721 4.78088 126.784 5.84329C127.846 6.95883 128.643 8.18061 129.174 9.34927L129.334 9.61487L124.234 12.5365L124.075 12.2709C123.65 11.4564 123.118 10.695 122.481 9.98672C121.844 9.27846 121.117 8.71182 120.303 8.28685C119.524 7.89732 118.586 7.70252 117.488 7.70252C116 7.70252 114.92 8.02125 114.247 8.6587C113.557 9.34927 113.238 10.093 113.238 10.996C113.238 11.8105 113.468 12.5365 113.929 13.174C114.46 13.8114 115.257 14.4312 116.319 15.0332C117.435 15.6175 118.922 16.255 120.675 16.8924C121.737 17.2643 122.747 17.6892 123.809 18.2736C124.836 18.8048 125.775 19.4953 126.624 20.3453C127.421 21.1421 128.165 22.1514 128.643 23.2669C129.174 24.4356 129.493 25.7636 129.493 27.3041C129.493 28.8977 129.121 30.3851 128.484 31.66C127.846 32.9349 126.996 34.0505 125.881 34.9535C124.818 35.8035 123.543 36.494 122.215 36.9721C120.834 37.4502 119.4 37.6627 117.913 37.6627ZM136.346 36.9721V2.60292H146.81C149.307 2.60292 151.538 3.02789 153.344 3.87782C155.203 4.78088 156.691 6.00266 157.7 7.6494C158.763 9.24303 159.294 11.1554 159.294 13.3333C159.294 15.5644 158.763 17.4768 157.7 19.1235C156.691 20.7171 155.203 21.992 153.344 22.842C151.538 23.745 149.307 24.17 146.81 24.17H142.614V36.9721H136.346ZM146.863 18.5392C148.723 18.5392 150.263 18.1142 151.379 17.2112C152.494 16.3612 153.079 15.0863 153.079 13.3333C153.079 11.6335 152.494 10.3586 151.379 9.50863C150.263 8.6587 148.723 8.23373 146.863 8.23373H142.667V18.5392H146.863ZM184.154 36.9721L180.277 28.2603H168.271L164.393 36.9721H157.328L174.274 0.318725L191.326 36.9721H184.154ZM178.417 22.842L174.221 13.2271L170.13 22.842H178.417ZM209.174 37.5033C206.678 37.5033 204.287 37.0784 202.109 36.2284C199.984 35.4316 198.072 34.1567 196.478 32.5631C194.885 30.9695 193.61 29.0571 192.707 26.8791C191.804 24.7543 191.379 22.3639 191.379 19.761C191.379 17.158 191.804 14.7676 192.707 12.5896C193.61 10.4117 194.885 8.55246 196.478 6.95883C198.072 5.36521 199.984 4.14343 202.109 3.24037C204.287 2.39044 206.678 1.96547 209.174 1.96547C211.671 1.96547 213.796 2.2842 215.443 2.92165C217.142 3.50598 218.683 4.46215 220.117 5.63081L220.223 5.73705V13.4396L219.692 12.8552C218.948 11.9699 218.063 11.1731 217.036 10.4648C216.027 9.72112 214.911 9.18991 213.636 8.76494C212.362 8.39309 210.927 8.18061 209.334 8.18061C207.368 8.18061 205.509 8.6587 203.809 9.61487C202.109 10.5179 200.728 11.8991 199.719 13.6521C198.656 15.3519 198.125 17.4236 198.125 19.761C198.125 22.0983 198.656 24.1169 199.719 25.8699C200.728 27.5697 202.109 28.9509 203.809 29.907C205.509 30.9163 207.368 31.3944 209.334 31.3944C210.927 31.3944 212.362 31.1819 213.636 30.757C214.911 30.3851 216.027 29.8008 217.036 29.1102C218.045 28.3665 218.948 27.5697 219.692 26.6667L220.223 26.0292V33.7849L220.117 33.8911C218.683 35.0598 217.142 35.9628 215.443 36.6003C213.796 37.2377 211.671 37.5033 209.174 37.5033ZM226.97 36.9721V2.60292H248.112V8.23373H233.185V15.83H247.156V21.3015H233.185V31.3413H248.112V36.9721H226.97ZM0.515564 19.8141C0.515564 8.87118 9.38674 0 20.3828 0C31.3257 0 40.1968 8.87118 40.1968 19.8141C40.1968 30.757 31.3257 39.6282 20.3828 39.6282C9.38674 39.6282 0.515564 30.757 0.515564 19.8141ZM20.914 1.5405H19.8515L15.9206 13.6521H3.1716C3.06536 13.9708 2.95912 14.3072 2.85288 14.6614L13.1583 22.0983L9.22738 34.2098L10.0773 34.8473L20.3296 27.3572L30.6882 34.8473L31.5381 34.2098L27.6072 22.1514L37.9126 14.6614C37.8064 14.3072 37.7002 13.9708 37.5939 13.6521H24.8449L20.914 1.5405ZM263.782 5.52457C263.782 6.12659 263.676 6.69323 263.464 7.22444C263.216 7.75564 262.915 8.21604 262.561 8.60558C262.171 8.95973 261.711 9.24303 261.18 9.45551C260.648 9.66799 260.082 9.77424 259.48 9.77424C258.878 9.77424 258.311 9.66799 257.78 9.45551C257.249 9.24303 256.788 8.95973 256.399 8.60558C256.044 8.21604 255.744 7.75564 255.496 7.22444C255.283 6.69323 255.177 6.12659 255.177 5.52457C255.177 4.88712 255.283 4.30279 255.496 3.77158C255.744 3.24037 256.044 2.7977 256.399 2.44356C256.788 2.05401 257.249 1.75299 257.78 1.5405C258.311 1.32802 258.878 1.22178 259.48 1.22178C260.082 1.22178 260.648 1.32802 261.18 1.5405C261.711 1.75299 262.171 2.05401 262.561 2.44356C262.915 2.7977 263.216 3.24037 263.464 3.77158C263.676 4.30279 263.782 4.88712 263.782 5.52457ZM263.092 5.52457C263.092 4.99336 263.003 4.49757 262.826 4.03718C262.649 3.5768 262.401 3.18725 262.083 2.86853C261.728 2.51438 261.339 2.24878 260.914 2.07171C260.489 1.89465 260.011 1.80611 259.48 1.80611C258.948 1.80611 258.47 1.89465 258.045 2.07171C257.585 2.24878 257.195 2.51438 256.877 2.86853C256.558 3.18725 256.31 3.5768 256.133 4.03718C255.956 4.49757 255.867 4.99336 255.867 5.52457C255.867 6.05578 255.956 6.53386 256.133 6.95883C256.31 7.41923 256.558 7.80876 256.877 8.12749C257.195 8.48165 257.585 8.74725 258.045 8.9243C258.47 9.10135 258.948 9.18991 259.48 9.18991C260.011 9.18991 260.489 9.10135 260.914 8.9243C261.339 8.74725 261.728 8.48165 262.083 8.12749C262.401 7.80876 262.649 7.41923 262.826 6.95883C263.003 6.53386 263.092 6.05578 263.092 5.52457ZM260.064 5.84329L261.498 7.86189H260.489L259.267 5.94953H258.736V7.86189H257.886V2.86853H259.427C259.958 2.86853 260.4 3.01018 260.755 3.29349C261.073 3.5768 261.233 3.94865 261.233 4.40903C261.233 4.86941 261.073 5.24126 260.755 5.52457C260.542 5.70162 260.312 5.80786 260.064 5.84329ZM258.736 5.25896H259.373C259.692 5.25896 259.94 5.18814 260.117 5.04648C260.294 4.90482 260.383 4.69234 260.383 4.40903C260.383 4.16113 260.294 3.96636 260.117 3.8247C259.94 3.68304 259.692 3.61222 259.373 3.61222H258.736V5.25896Z" fill="#6000DB"/>
</svg>
