<svg width="60" height="60" viewBox="0 0 60 60" fill="none" xmlns="http://www.w3.org/2000/svg">
<path id="Vector" d="M30 0C13.4312 0 0 13.4312 0 30C0 46.5687 13.4312 60 30 60C46.5687 60 60 46.5687 60 30C60 13.4312 46.5687 0 30 0ZM41.5375 33.8469C41.5375 33.8469 44.1906 36.4656 44.8437 37.6812C44.8625 37.7062 44.8719 37.7312 44.8781 37.7437C45.1437 38.1906 45.2062 38.5375 45.075 38.7969C44.8563 39.2281 44.1062 39.4406 43.85 39.4594H39.1625C38.8375 39.4594 38.1562 39.375 37.3312 38.8062C36.6969 38.3625 36.0719 37.6344 35.4625 36.925C34.5531 35.8687 33.7656 34.9562 32.9719 34.9562C32.8711 34.9561 32.7709 34.9719 32.675 35.0031C32.075 35.1969 31.3062 36.0531 31.3062 38.3344C31.3062 39.0469 30.7437 39.4562 30.3469 39.4562H28.2C27.4687 39.4562 23.6594 39.2 20.2844 35.6406C16.1531 31.2812 12.4344 22.5375 12.4031 22.4562C12.1687 21.8906 12.6531 21.5875 13.1812 21.5875H17.9156C18.5469 21.5875 18.7531 21.9719 18.8969 22.3125C19.0656 22.7094 19.6844 24.2875 20.7 26.0625C22.3469 28.9562 23.3562 30.1312 24.1656 30.1312C24.3174 30.1295 24.4664 30.0909 24.6 30.0187C25.6562 29.4312 25.4594 25.6656 25.4125 24.8844C25.4125 24.7375 25.4094 23.2 24.8687 22.4625C24.4812 21.9281 23.8219 21.725 23.4219 21.65C23.5838 21.4266 23.7971 21.2455 24.0437 21.1219C24.7687 20.7594 26.075 20.7062 27.3719 20.7062H28.0938C29.5 20.725 29.8625 20.8156 30.3719 20.9437C31.4031 21.1906 31.425 21.8562 31.3344 24.1344C31.3062 24.7812 31.2781 25.5125 31.2781 26.375C31.2781 26.5625 31.2687 26.7625 31.2687 26.975C31.2375 28.1344 31.2 29.45 32.0187 29.9906C32.1255 30.0576 32.249 30.0933 32.375 30.0937C32.6594 30.0937 33.5156 30.0937 35.8344 26.1156C36.5495 24.8352 37.1709 23.5046 37.6937 22.1344C37.7406 22.0531 37.8781 21.8031 38.0406 21.7062C38.1605 21.6451 38.2935 21.614 38.4281 21.6156H43.9937C44.6 21.6156 45.0156 21.7062 45.0937 21.9406C45.2312 22.3125 45.0687 23.4469 42.5281 26.8875L41.3937 28.3844C39.0906 31.4031 39.0906 31.5562 41.5375 33.8469Z" fill="#6000DB"/>
</svg>
