<svg width="20" height="20" viewBox="0 0 20 20" fill="none" xmlns="http://www.w3.org/2000/svg">
<rect width="20" height="20" rx="10" fill="#6000DB"/>
<path d="M12.5385 5.968L10.9665 8.008C11.5505 8.176 12.0145 8.472 12.3585 8.896C12.7105 9.32 12.8865 9.824 12.8865 10.408C12.8865 11.272 12.5945 11.948 12.0105 12.436C11.4425 12.924 10.7345 13.168 9.88647 13.168C9.22247 13.168 8.63447 13.016 8.12247 12.712C7.61047 12.4 7.23847 11.96 7.00647 11.392L8.42247 10.576C8.62247 11.224 9.11047 11.548 9.88647 11.548C10.3105 11.548 10.6385 11.448 10.8705 11.248C11.1105 11.04 11.2305 10.76 11.2305 10.408C11.2305 10.064 11.1105 9.788 10.8705 9.58C10.6385 9.372 10.3105 9.268 9.88647 9.268H9.52647L8.89047 8.308L10.5465 6.148H7.25847V4.6H12.5385V5.968Z" fill="#FCFAFF"/>
</svg>
