<svg width="64" height="64" viewBox="0 0 64 64" fill="none" xmlns="http://www.w3.org/2000/svg">
<rect width="64" height="64" rx="12" fill="#ED91C8"/>
<path fill-rule="evenodd" clip-rule="evenodd" d="M27.5486 20.6214C27.7209 19.9609 28.3174 19.5 29 19.5H35C35.6826 19.5 36.2791 19.9609 36.4514 20.6214L42.4514 43.6214C42.5938 44.167 42.418 44.7465 41.9965 45.1211L32.9965 53.1211C32.4282 53.6263 31.5718 53.6263 31.0034 53.1211L22.0034 45.1211C21.5819 44.7465 21.4062 44.167 21.5486 43.6214L27.5486 20.6214ZM30.1589 22.5L24.6834 43.4894L32 49.9931L39.3166 43.4894L33.8411 22.5H30.1589Z" fill="white"/>
<path fill-rule="evenodd" clip-rule="evenodd" d="M28.1679 10.7519C28.4143 10.5877 28.7038 10.5 29 10.5H35C35.2961 10.5 35.5856 10.5877 35.832 10.7519L38.832 12.7519C39.4337 13.153 39.6635 13.9263 39.3787 14.5909L36.3787 21.5909C36.1423 22.1424 35.6 22.5 35 22.5H29C28.3999 22.5 27.8576 22.1424 27.6213 21.5909L24.6213 14.5909C24.3364 13.9263 24.5663 13.153 25.1679 12.7519L28.1679 10.7519ZM29.4541 13.5L27.8702 14.556L29.9891 19.5H34.0109L36.1298 14.556L34.5458 13.5H29.4541Z" fill="white"/>
</svg>
